<?xml version="1.0" encoding="UTF-8" standalone="no"?>
<!-- Created with Inkscape (http://www.inkscape.org/) -->

<svg
   xmlns:dc="http://purl.org/dc/elements/1.1/"
   xmlns:cc="http://creativecommons.org/ns#"
   xmlns:rdf="http://www.w3.org/1999/02/22-rdf-syntax-ns#"
   xmlns:svg="http://www.w3.org/2000/svg"
   xmlns="http://www.w3.org/2000/svg"
   xmlns:sodipodi="http://sodipodi.sourceforge.net/DTD/sodipodi-0.dtd"
   xmlns:inkscape="http://www.inkscape.org/namespaces/inkscape"
   version="1.1"
   id="svg10"
   width="1141.1523"
   height="1141.1504"
   viewBox="0 0 1141.1523 1141.1504"
   sodipodi:docname="MTVA.svg"
   inkscape:version="0.92.2 (5c3e80d, 2017-08-06)">
  <metadata
     id="metadata16">
    <rdf:RDF>
      <cc:Work
         rdf:about="">
        <dc:format>image/svg+xml</dc:format>
        <dc:type
           rdf:resource="http://purl.org/dc/dcmitype/StillImage" />
        <dc:title></dc:title>
      </cc:Work>
    </rdf:RDF>
  </metadata>
  <defs
     id="defs14" />
  <sodipodi:namedview
     pagecolor="#ffffff"
     bordercolor="#666666"
     borderopacity="1"
     objecttolerance="10"
     gridtolerance="10"
     guidetolerance="10"
     inkscape:pageopacity="0"
     inkscape:pageshadow="2"
     inkscape:window-width="1920"
     inkscape:window-height="1018"
     id="namedview12"
     showgrid="false"
     inkscape:zoom="0.34852217"
     inkscape:cx="1092.1325"
     inkscape:cy="715.38014"
     inkscape:window-x="-8"
     inkscape:window-y="-8"
     inkscape:window-maximized="1"
     inkscape:current-layer="svg10"
     inkscape:measure-start="197.699,615.201"
     inkscape:measure-end="260.396,615.201"
     fit-margin-top="0"
     fit-margin-left="0"
     fit-margin-right="0"
     fit-margin-bottom="0" />
  <g
     id="g1001"
     transform="translate(-68.5006,-32.120555)">
    <path
       inkscape:connector-curvature="0"
       id="path44"
       d="m 381.71484,529.97852 v 145.43554 h 26.38935 v -102.5957 l 35.66432,102.5957 h 12.71841 12.71842 l 35.66432,-102.5957 v 102.5957 H 531.259 V 529.97852 H 490.04056 L 456.48692,632.0625 422.93328,529.97852 Z"
       style="font-style:normal;font-variant:normal;font-weight:normal;font-stretch:normal;font-size:medium;line-height:1.25;font-family:'Proxima Nova Alt';-inkscape-font-specification:'Proxima Nova Alt';letter-spacing:0px;word-spacing:0px;opacity:1;fill:#000000;fill-opacity:1;stroke:none;stroke-width:5.31285858" />
    <path
       id="path106"
       d="m 545.9668,529.97852 v 27.76367 h 2.27734 35.98633 v 117.67187 h 1.82617 27.72656 1.82422 V 557.74219 h 35.79492 2.27735 v -27.76367 h -2.27735 -103.1582 z"
       style="font-style:normal;font-variant:normal;font-weight:normal;font-stretch:normal;font-size:medium;line-height:1.25;font-family:'Proxima Nova Alt';-inkscape-font-specification:'Proxima Nova Alt';letter-spacing:0px;word-spacing:0px;opacity:1;fill:#000000;fill-opacity:1;stroke:none;stroke-width:5.14049053"
       inkscape:connector-curvature="0" />
    <path
       id="path48"
       d="m 663.0332,529.97852 47.66602,145.43554 h 18.55469 18.55468 L 795.47461,529.97852 H 761.36523 L 729.25391,632.99414 697.14258,529.97852 Z"
       style="font-style:normal;font-variant:normal;font-weight:normal;font-stretch:normal;font-size:medium;line-height:1.25;font-family:'Proxima Nova Alt';-inkscape-font-specification:'Proxima Nova Alt';letter-spacing:0px;word-spacing:0px;opacity:1;fill:#000000;fill-opacity:1;stroke:none;stroke-width:5.10705996"
       inkscape:connector-curvature="0" />
    <path
       id="path93"
       d="m 825.41992,529.97852 -36.28906,112.80859 -10.49609,32.62695 h 29.30859 l 7.64648,-24.63867 2.8086,-7.98828 h 45.49414 l 2.80859,7.98828 8.08985,24.63867 h 29.8164 L 894.11133,642.78711 857.82227,529.97852 Z m 16.20117,30.96289 15.97852,52.81445 h -31.95703 z"
       style="font-style:normal;font-variant:normal;font-weight:normal;font-stretch:normal;font-size:medium;line-height:1.25;font-family:'Proxima Nova Alt';-inkscape-font-specification:'Proxima Nova Alt';letter-spacing:0px;word-spacing:0px;opacity:1;fill:#000000;fill-opacity:1;stroke:none;stroke-width:4.98073864"
       inkscape:connector-curvature="0" />
  </g>
  <path
     style="color:#000000;font-style:normal;font-variant:normal;font-weight:normal;font-stretch:normal;font-size:medium;line-height:normal;font-family:sans-serif;font-variant-ligatures:normal;font-variant-position:normal;font-variant-caps:normal;font-variant-numeric:normal;font-variant-alternates:normal;font-feature-settings:normal;text-indent:0;text-align:start;text-decoration:none;text-decoration-line:none;text-decoration-style:solid;text-decoration-color:#000000;letter-spacing:normal;word-spacing:normal;text-transform:none;writing-mode:lr-tb;direction:ltr;text-orientation:mixed;dominant-baseline:auto;baseline-shift:baseline;text-anchor:start;white-space:normal;shape-padding:0;clip-rule:nonzero;display:inline;overflow:visible;visibility:visible;opacity:1;isolation:auto;mix-blend-mode:normal;color-interpolation:sRGB;color-interpolation-filters:linearRGB;solid-color:#000000;solid-opacity:1;vector-effect:none;fill:#570662;fill-opacity:1;fill-rule:nonzero;stroke:none;stroke-width:125.40000153;stroke-linecap:butt;stroke-linejoin:miter;stroke-miterlimit:4;stroke-dasharray:none;stroke-dashoffset:0;stroke-opacity:1;color-rendering:auto;image-rendering:auto;shape-rendering:auto;text-rendering:auto;enable-background:accumulate"
     d="m 570.57618,191.89453 c -6.54717,0 -13.05509,0.16571 -19.51954,0.49219 -6.46444,0.32648 -12.8859,0.8139 -19.25976,1.45899 -6.37387,0.6451 -12.6992,1.44649 -18.97461,2.40234 -6.27542,0.95584 -12.50081,2.06548 -18.66992,3.32422 -6.16911,1.25873 -12.28295,2.66693 -18.33789,4.2207 -6.05494,1.55376 -12.05148,3.25282 -17.98438,5.09375 -5.93291,1.84093 -11.80246,3.82508 -17.60547,5.94531 -5.80301,2.12023 -11.53787,4.37788 -17.20312,6.76954 -5.66524,2.39167 -11.25968,4.91702 -16.7793,7.57226 -5.51962,2.65523 -10.9659,5.44061 -16.33203,8.35156 -5.36614,2.91095 -10.65263,5.94667 -15.85742,9.10547 -5.20478,3.15879 -10.32771,6.43911 -15.36328,9.83789 -5.03557,3.39878 -9.98331,6.91599 -14.8418,10.54688 -4.85849,3.6309 -9.62723,7.37532 -14.30078,11.23047 -4.67356,3.85516 -9.25167,7.82102 -13.73242,11.89257 -4.48074,4.07155 -8.86446,8.24922 -13.14454,12.5293 -4.28007,4.28008 -8.45774,8.66378 -12.52929,13.14453 -4.07154,4.48075 -8.03743,9.05888 -11.89258,13.73243 -3.85516,4.67355 -7.59957,9.44229 -11.23047,14.30078 -3.6309,4.85849 -7.14809,9.80622 -10.54687,14.84179 -3.39877,5.03557 -6.67909,10.1585 -9.83789,15.36328 -3.15879,5.20478 -6.19452,10.4913 -9.10547,15.85743 -2.91094,5.36614 -5.69633,10.81241 -8.35157,16.33203 -2.65524,5.51963 -5.1806,11.11404 -7.57226,16.77929 -2.39167,5.66525 -4.6493,11.40012 -6.76953,17.20313 -2.12022,5.803 -4.10439,11.67257 -5.94531,17.60547 -1.84093,5.93291 -3.53999,11.92943 -5.09376,17.98437 -1.55376,6.05494 -2.96196,12.16878 -4.2207,18.33789 -1.25874,6.16911 -2.36837,12.39451 -3.32422,18.66993 -0.95585,6.27542 -1.75725,12.60075 -2.40234,18.97461 -0.6451,6.37387 -1.13251,12.79531 -1.45898,19.25976 -0.32649,6.46444 -0.49219,12.97236 -0.49219,19.51953 0,6.54716 0.16571,13.05508 0.49219,19.51953 0.32647,6.46445 0.81388,12.88591 1.45898,19.25977 0.64509,6.37387 1.44649,12.69919 2.40234,18.97461 0.95585,6.27542 2.06548,12.50081 3.32422,18.66992 1.25874,6.16911 2.66694,12.28295 4.2207,18.33789 1.55377,6.05494 3.25283,12.05148 5.09376,17.98438 1.84092,5.93291 3.82509,11.80245 5.94531,17.60546 2.12023,5.80301 4.37786,11.53788 6.76953,17.20313 2.39166,5.66524 4.91702,11.25968 7.57226,16.7793 2.65524,5.51962 5.44063,10.9659 8.35157,16.33203 2.91095,5.36614 5.94668,10.65263 9.10547,15.85742 3.1588,5.20478 6.43912,10.32771 9.83789,15.36328 3.39878,5.03557 6.91597,9.98331 10.54687,14.8418 3.6309,4.85849 7.37531,9.62723 11.23047,14.30078 3.85515,4.67356 7.82104,9.25167 11.89258,13.73242 4.07155,4.48074 8.24922,8.86445 12.52929,13.14453 4.28009,4.28008 8.6638,8.45775 13.14454,12.5293 4.48075,4.07154 9.05886,8.03743 13.73242,11.89258 4.67355,3.85516 9.44229,7.59957 14.30078,11.23047 4.85849,3.6309 9.80623,7.14809 14.8418,10.54687 5.03557,3.39877 10.1585,6.67909 15.36328,9.83789 5.20479,3.15879 10.49128,6.19452 15.85742,9.10547 5.36613,2.91094 10.81241,5.69632 16.33203,8.35156 5.51962,2.65524 11.11406,5.18061 16.7793,7.57227 5.66525,2.39167 11.40011,4.6493 17.20312,6.76953 5.80301,2.12022 11.67256,4.10438 17.60547,5.94531 5.9329,1.84093 11.92944,3.53998 17.98438,5.09375 6.05494,1.55376 12.16878,2.96197 18.33789,4.2207 6.16911,1.25875 12.3945,2.36837 18.66992,3.32422 6.27541,0.95585 12.60074,1.75726 18.97461,2.40235 6.37386,0.6451 12.79532,1.1325 19.25976,1.45898 6.46445,0.32648 12.97238,0.49219 19.51954,0.49219 6.54717,0 13.05509,-0.16571 19.51953,-0.49219 6.46445,-0.32648 12.88589,-0.81388 19.25976,-1.45898 6.37386,-0.64509 12.69919,-1.4465 18.97461,-2.40235 6.27542,-0.95585 12.50081,-2.06548 18.66992,-3.32422 6.16911,-1.25873 12.28295,-2.66694 18.33789,-4.2207 6.05494,-1.55377 12.05147,-3.25282 17.98438,-5.09375 5.9329,-1.84093 11.80247,-3.82509 17.60547,-5.94531 5.80301,-2.12023 11.53787,-4.37786 17.20312,-6.76953 5.66525,-2.39166 11.25967,-4.91703 16.7793,-7.57227 5.51962,-2.65524 10.96589,-5.44062 16.33203,-8.35156 5.36613,-2.91095 10.65264,-5.94668 15.85742,-9.10547 5.20478,-3.1588 10.32771,-6.43912 15.36328,-9.83789 5.03557,-3.39878 9.98331,-6.91597 14.8418,-10.54687 4.85849,-3.6309 9.62723,-7.37531 14.30078,-11.23047 4.67355,-3.85515 9.25167,-7.82104 13.73242,-11.89258 4.48075,-4.07155 8.86446,-8.24922 13.14453,-12.5293 4.28009,-4.28008 8.45775,-8.66379 12.5293,-13.14453 4.07155,-4.48075 8.03742,-9.05886 11.89258,-13.73242 3.85515,-4.67355 7.59957,-9.44229 11.23047,-14.30078 3.63089,-4.85849 7.14809,-9.80623 10.54687,-14.8418 3.39878,-5.03557 6.6791,-10.1585 9.83789,-15.36328 3.1588,-5.20479 6.19452,-10.49128 9.10547,-15.85742 2.91095,-5.36613 5.69633,-10.81241 8.35157,-16.33203 2.65524,-5.51962 5.18059,-11.11406 7.57226,-16.7793 2.39166,-5.66525 4.6493,-11.40012 6.76953,-17.20313 2.12023,-5.80301 4.10436,-11.67255 5.94532,-17.60546 1.84089,-5.9329 3.54005,-11.92944 5.09374,-17.98438 1.5538,-6.05494 2.96201,-12.16878 4.22071,-18.33789 1.2588,-6.16911 2.36842,-12.3945 3.32422,-18.66992 0.9559,-6.27542 1.75724,-12.60074 2.40234,-18.97461 0.6451,-6.37386 1.13248,-12.79532 1.45899,-19.25977 0.32649,-6.46445 0.49218,-12.97237 0.49218,-19.51953 0,-6.54717 -0.16568,-13.05509 -0.49218,-19.51953 -0.32651,-6.46445 -0.81389,-12.88589 -1.45899,-19.25976 -0.6451,-6.37386 -1.44644,-12.69919 -2.40234,-18.97461 -0.9558,-6.27542 -2.06542,-12.50082 -3.32422,-18.66993 -1.2587,-6.16911 -2.66691,-12.28295 -4.22071,-18.33789 -1.55369,-6.05494 -3.25284,-12.05146 -5.09374,-17.98437 -1.84096,-5.9329 -3.82509,-11.80247 -5.94532,-17.60547 -2.12023,-5.80301 -4.37787,-11.53788 -6.76953,-17.20313 -2.39167,-5.66525 -4.91702,-11.25966 -7.57226,-16.77929 -2.65524,-5.51962 -5.44062,-10.96589 -8.35157,-16.33203 -2.91095,-5.36613 -5.94667,-10.65265 -9.10547,-15.85743 -3.15879,-5.20478 -6.43911,-10.32771 -9.83789,-15.36328 -3.39878,-5.03557 -6.91598,-9.9833 -10.54687,-14.84179 -3.6309,-4.85849 -7.37532,-9.62724 -11.23047,-14.30078 -3.85516,-4.67356 -7.82103,-9.25168 -11.89258,-13.73243 -4.07155,-4.48075 -8.24922,-8.86445 -12.5293,-13.14453 -4.28007,-4.28008 -8.66378,-8.45774 -13.14453,-12.5293 -4.48075,-4.07154 -9.05887,-8.03741 -13.73242,-11.89257 -4.67355,-3.85515 -9.44229,-7.59957 -14.30078,-11.23047 -4.85849,-3.63089 -9.80623,-7.1481 -14.8418,-10.54688 -5.03557,-3.39878 -10.1585,-6.6791 -15.36328,-9.83789 -5.20478,-3.1588 -10.49129,-6.19452 -15.85742,-9.10547 -5.36614,-2.91095 -10.81241,-5.69633 -16.33203,-8.35156 -5.51963,-2.65524 -11.11405,-5.18059 -16.7793,-7.57226 -5.66525,-2.39166 -11.40011,-4.64931 -17.20312,-6.76954 -5.803,-2.12023 -11.67257,-4.10438 -17.60547,-5.94531 -5.93291,-1.84093 -11.92944,-3.53999 -17.98438,-5.09375 -6.05494,-1.55377 -12.16878,-2.96197 -18.33789,-4.2207 -6.16911,-1.25874 -12.3945,-2.36838 -18.66992,-3.32422 -6.27542,-0.95585 -12.60075,-1.75724 -18.97461,-2.40234 -6.37387,-0.64509 -12.79531,-1.13251 -19.25976,-1.45899 -6.46444,-0.32648 -12.97236,-0.49219 -19.51953,-0.49219 z m 0,0.004 c 6.53908,0 13.03839,0.16771 19.49609,0.49609 6.45571,0.32828 12.862,0.81759 19.2168,1.46485 6.36379,0.64819 12.67171,1.45255 18.92187,2.41015 6.25246,0.95795 12.45806,2.07173 18.61133,3.33399 6.1522,1.26207 12.24554,2.67061 18.2793,4.22656 6.0347,1.55617 12.01391,3.25913 17.93164,5.10352 5.91657,1.84402 11.77114,3.83139 17.56054,5.95507 5.78592,2.12242 11.51043,4.38361 17.16993,6.78126 5.65949,2.39767 11.24779,4.92716 16.75781,7.58593 5.51522,2.66127 10.95488,5.45199 16.31836,8.36914 5.36167,2.91616 10.65059,5.96274 15.85937,9.13086 5.20216,3.16409 10.32587,6.45206 15.3711,9.86328 5.04309,3.40978 9.99752,6.93659 14.86132,10.57618 4.86951,3.64387 9.64815,7.39988 14.32813,11.26367 4.68142,3.86499 9.27011,7.84083 13.76367,11.92578 4.49064,4.08229 8.88519,8.27391 13.17774,12.5664 4.29198,4.29197 8.48111,8.68405 12.56445,13.17579 4.08449,4.49301 8.06033,9.08175 11.92578,13.76367 3.86902,4.68626 7.62685,9.46547 11.26562,14.32812 3.63934,4.8634 7.16636,9.81816 10.57618,14.86133 3.40694,5.03877 6.69731,10.16473 9.86523,15.37305 3.16562,5.20457 6.20798,10.49268 9.12695,15.85937 2.91891,5.3668 5.71229,10.80824 8.3711,16.31836 v 0.002 c 2.66046,5.51334 5.18966,11.09769 7.58593,16.7539 2.3975,5.65903 4.65856,11.38339 6.78126,17.16992 2.12339,5.78845 4.11071,11.64327 5.95507,17.56055 1.8442,5.91744 3.54702,11.89625 5.10352,17.93164 1.5559,6.03386 2.96466,12.12736 4.22656,18.2793 1.2621,6.15246 2.37393,12.35814 3.33203,18.61133 0.9576,6.25067 1.76206,12.55863 2.41016,18.92187 0.6472,6.35411 1.13644,12.76231 1.46484,19.21875 0.3283,6.45699 0.4961,12.95548 0.4961,19.49414 0,6.53866 -0.1678,13.03713 -0.4961,19.49414 -0.3284,6.45643 -0.81764,12.86461 -1.46484,19.21875 -0.6481,6.36323 -1.45246,12.67119 -2.41016,18.92188 -0.9581,6.25318 -2.06983,12.45882 -3.33203,18.61133 -1.2619,6.15192 -2.67066,12.24533 -4.22656,18.27929 -1.5565,6.03535 -3.25922,12.01409 -5.10352,17.93164 -1.84433,5.9172 -3.83163,11.77196 -5.95507,17.56055 -2.12266,5.78646 -4.38373,11.51079 -6.78126,17.16992 -2.39796,5.66018 -4.92756,11.24682 -7.58593,16.75586 v 0.002 c -2.65656,5.50548 -5.44947,10.94458 -8.3711,16.31641 -2.92145,5.37129 -5.96428,10.66159 -9.12695,15.86133 -3.16468,5.20302 -6.45451,10.3267 -9.86523,15.37109 -3.40969,5.043 -6.93669,9.99771 -10.57618,14.86133 -3.63861,4.86245 -7.3964,9.64161 -11.26562,14.32813 -3.86526,4.68172 -7.84102,9.27034 -11.92578,13.76367 -4.08833,4.49726 -8.27795,8.89123 -12.56445,13.17773 -4.2865,4.2865 -8.68052,8.47616 -13.17774,12.56445 -4.49324,4.0847 -9.08196,8.06055 -13.76367,11.92579 -4.68656,3.86925 -9.4657,7.62702 -14.32813,11.26562 -4.86349,3.63939 -9.81791,7.16616 -14.86132,10.57617 -5.04487,3.411 -10.16855,6.70089 -15.3711,9.86524 -5.20001,3.16282 -10.4885,6.20576 -15.85937,9.12695 -5.37195,2.92178 -10.81197,5.71404 -16.31836,8.37109 -5.50997,2.65874 -11.09811,5.18817 -16.75781,7.58594 -5.65918,2.39754 -11.38349,4.6586 -17.16993,6.78125 -5.78903,2.12348 -11.64446,4.11119 -17.56054,5.95508 -5.91752,1.84433 -11.89684,3.54733 -17.93164,5.10352 -6.03392,1.55597 -12.12683,2.96634 -18.2793,4.22851 v -0.002 c -6.1536,1.26232 -12.35926,2.37613 -18.61133,3.33398 -6.2496,0.95756 -12.55753,1.76188 -18.92187,2.41016 -6.35525,0.64729 -12.76147,1.1366 -19.2168,1.46484 -6.4582,0.32838 -12.95732,0.4961 -19.49609,0.4961 -6.53877,0 -13.0379,-0.16772 -19.4961,-0.4961 -6.45532,-0.32824 -12.86155,-0.81756 -19.2168,-1.46484 -6.36434,-0.64827 -12.67228,-1.4526 -18.92187,-2.41016 -6.25207,-0.95785 -12.45773,-2.07166 -18.61133,-3.33398 v 0.002 c -6.15248,-1.26217 -12.24538,-2.67254 -18.2793,-4.22851 -6.0348,-1.5562 -12.01409,-3.25918 -17.93164,-5.10352 -5.91608,-1.84389 -11.7715,-3.8316 -17.56054,-5.95508 h -0.002 c -5.78588,-2.12248 -11.50939,-4.38396 -17.16796,-6.78125 -5.65968,-2.39776 -11.24785,-4.9272 -16.75782,-7.58594 -5.50639,-2.65705 -10.94644,-5.44933 -16.31836,-8.37109 -5.37087,-2.92119 -10.6593,-5.96411 -15.85937,-9.12695 -5.20254,-3.16435 -10.32623,-6.45424 -15.3711,-9.86524 -5.04345,-3.41005 -9.99789,-6.93682 -14.86132,-10.57617 -4.86241,-3.63858 -9.64158,-7.39637 -14.32813,-11.26562 -4.68168,-3.86522 -9.27037,-7.84104 -13.76367,-11.92579 -4.49722,-4.08829 -8.89123,-8.27795 -13.17773,-12.56445 -4.28652,-4.2865 -8.47617,-8.68051 -12.56446,-13.17773 -4.08474,-4.4933 -8.06056,-9.08199 -11.92578,-13.76367 -3.86925,-4.68655 -7.62704,-9.46572 -11.26562,-14.32813 -3.63935,-4.86343 -7.16613,-9.81788 -10.57618,-14.86133 -3.411,-5.04487 -6.70088,-10.16854 -9.86523,-15.37109 -3.16285,-5.20008 -6.20579,-10.48855 -9.12695,-15.85938 -2.92176,-5.37192 -5.71409,-10.81202 -8.3711,-16.31836 -2.65861,-5.50964 -5.18811,-11.09798 -7.58594,-16.75781 -2.39751,-5.65913 -4.6587,-11.38367 -6.78124,-17.16992 -2.12361,-5.78909 -4.11094,-11.64367 -5.95508,-17.56055 -1.84434,-5.91755 -3.54726,-11.89668 -5.10352,-17.93164 -1.5559,-6.03353 -2.96445,-12.12688 -4.22656,-18.27929 -1.26226,-6.15311 -2.376,-12.35871 -3.33399,-18.61133 -0.95759,-6.25004 -1.76197,-12.55804 -2.41015,-18.92188 -0.64727,-6.35469 -1.13656,-12.76102 -1.46485,-19.21679 -0.32838,-6.4577 -0.49609,-12.95701 -0.49609,-19.4961 0,-6.5391 0.16771,-13.0384 0.49609,-19.49609 0.32829,-6.45577 0.81759,-12.86214 1.46485,-19.2168 0.64818,-6.36385 1.45256,-12.67186 2.41015,-18.92187 0.95799,-6.25264 2.07174,-12.45827 3.33399,-18.61133 1.26212,-6.15244 2.67068,-12.24586 4.22656,-18.2793 1.55628,-6.03501 3.25921,-12.0142 5.10352,-17.93164 1.84417,-5.91696 3.83153,-11.77159 5.95508,-17.56055 2.12256,-5.78632 4.38377,-11.51089 6.78124,-17.16992 2.39617,-5.65586 4.92524,-11.24191 7.58594,-16.75586 2.65927,-5.51098 5.45206,-10.95342 8.3711,-16.32031 2.91868,-5.36623 5.96114,-10.65251 9.12695,-15.85742 3.16759,-5.20785 6.45801,-10.3338 9.86523,-15.37305 3.41018,-5.04362 6.93699,-9.99812 10.57618,-14.86133 3.63875,-4.86261 7.39656,-9.64182 11.26562,-14.32812 3.86541,-4.68189 7.84132,-9.2707 11.92578,-13.76367 4.08328,-4.49168 8.2724,-8.88376 12.56446,-13.17579 4.29253,-4.29249 8.68709,-8.48411 13.17773,-12.5664 4.49362,-4.085 9.08227,-8.06081 13.76367,-11.92578 4.67997,-3.86379 9.45864,-7.61982 14.32813,-11.26367 4.86377,-3.63957 9.81824,-7.1664 14.86132,-10.57618 5.04523,-3.41122 10.16895,-6.69919 15.3711,-9.86328 5.20883,-3.16814 10.4977,-6.2147 15.85937,-9.13086 5.36344,-2.91713 10.80315,-5.70787 16.31836,-8.36914 5.51002,-2.65877 11.09833,-5.18828 16.75782,-7.58593 5.65943,-2.39763 11.38398,-4.65883 17.16992,-6.78126 5.7894,-2.12368 11.64398,-4.11105 17.56054,-5.95507 5.91776,-1.8444 11.89695,-3.54734 17.93164,-5.10352 6.0338,-1.55596 12.12711,-2.96449 18.2793,-4.22656 6.15327,-1.26228 12.35887,-2.37604 18.61133,-3.33399 6.25014,-0.9576 12.55808,-1.76196 18.92187,-2.41015 6.3548,-0.64726 12.76109,-1.13657 19.2168,-1.46485 6.4577,-0.32838 12.95699,-0.49609 19.4961,-0.49609 z"
     id="path1021"
     inkscape:connector-curvature="0" />
  <path
     style="color:#000000;font-style:normal;font-variant:normal;font-weight:normal;font-stretch:normal;font-size:medium;line-height:normal;font-family:sans-serif;font-variant-ligatures:normal;font-variant-position:normal;font-variant-caps:normal;font-variant-numeric:normal;font-variant-alternates:normal;font-feature-settings:normal;text-indent:0;text-align:start;text-decoration:none;text-decoration-line:none;text-decoration-style:solid;text-decoration-color:#000000;letter-spacing:normal;word-spacing:normal;text-transform:none;writing-mode:lr-tb;direction:ltr;text-orientation:mixed;dominant-baseline:auto;baseline-shift:baseline;text-anchor:start;white-space:normal;shape-padding:0;clip-rule:nonzero;display:inline;overflow:visible;visibility:visible;opacity:1;isolation:auto;mix-blend-mode:normal;color-interpolation:sRGB;color-interpolation-filters:linearRGB;solid-color:#000000;solid-opacity:1;vector-effect:none;fill:#000000;fill-opacity:1;fill-rule:nonzero;stroke:none;stroke-width:125.40000153;stroke-linecap:butt;stroke-linejoin:miter;stroke-miterlimit:4;stroke-dasharray:none;stroke-dashoffset:0;stroke-opacity:1;color-rendering:auto;image-rendering:auto;shape-rendering:auto;text-rendering:auto;enable-background:accumulate"
     d="m 131.4824,525.50782 c -0.7547,7.41001 -1.325,14.87404 -1.707,22.38671 -0.3821,7.51267 -0.5762,15.07367 -0.5762,22.67969 0,7.60602 0.1941,15.16701 0.5762,22.67969 0.382,7.51267 0.9523,14.9767 1.707,22.38672 0.7548,7.41003 1.6924,14.7664 2.8106,22.06445 1.1181,7.29805 2.4164,14.53806 3.8886,21.71485 1.4723,7.17677 3.1185,14.28975 4.9356,21.33593 1.817,7.04617 3.8045,14.02537 5.957,20.93164 2.1525,6.90627 4.4706,13.741 6.9492,20.49805 2.4787,6.75704 5.1186,13.43665 7.9141,20.03516 2.7955,6.59852 5.74657,13.1162 8.84961,19.54687 3.10304,6.43067 6.35851,12.77383 9.75977,19.02735 3.40125,6.25351 6.9485,12.41732 10.63867,18.48437 3.69016,6.06704 7.52244,12.03694 11.49219,17.9082 3.96976,5.87126 8.07636,11.64244 12.3164,17.3086 4.24004,5.66617 8.61422,11.22792 13.11524,16.67968 4.501,5.45176 9.13014,10.79344 13.88281,16.02149 4.75266,5.22803 9.62804,10.34288 14.62305,15.33789 4.99501,4.99501 10.10985,9.87039 15.33789,14.62305 5.22805,4.75267 10.56972,9.38182 16.02148,13.88281 5.45176,4.50101 11.01352,8.87519 16.67969,13.11523 5.66616,4.24004 11.43733,8.34665 17.30859,12.31641 5.87126,3.96975 11.84117,7.80203 17.90821,11.49219 6.06705,3.69017 12.23086,7.23742 18.48437,10.63867 6.25351,3.40127 12.59668,6.6567 19.02735,9.75976 6.43067,3.103 12.94835,6.05411 19.54687,8.84961 6.59851,2.7955 13.27812,5.43537 20.03516,7.91407 6.75705,2.4786 13.59177,4.79672 20.49804,6.94921 6.90627,2.15252 13.88547,4.14004 20.93164,5.95704 7.04617,1.817 14.15917,3.46319 21.33594,4.93549 7.17677,1.4722 14.4168,2.7706 21.71485,3.8887 7.29805,1.1182 14.65443,2.0558 22.06445,2.8106 7.41002,0.7547 14.87405,1.325 22.38672,1.707 7.51268,0.382 15.07366,0.5762 22.67969,0.5762 7.606,0 15.167,-0.1942 22.67968,-0.5762 7.51268,-0.382 14.9767,-0.9523 22.38672,-1.707 7.41002,-0.7548 14.7664,-1.6924 22.06445,-2.8106 7.29805,-1.1181 14.53807,-2.4165 21.71485,-3.8887 7.17675,-1.4723 14.28977,-3.11849 21.33594,-4.93549 7.04618,-1.817 14.02538,-3.80453 20.93164,-5.95704 6.90627,-2.1525 13.74099,-4.47061 20.49804,-6.94921 6.75705,-2.4787 13.43664,-5.11857 20.03516,-7.91407 6.59851,-2.7955 13.1162,-5.74661 19.54687,-8.84961 6.43067,-3.10306 12.77383,-6.3585 19.02735,-9.75976 6.2535,-3.40124 12.41733,-6.9485 18.48437,-10.63867 6.06704,-3.69016 12.03695,-7.52244 17.90821,-11.49219 5.87127,-3.96976 11.64242,-8.07637 17.30859,-12.31641 5.66616,-4.24004 11.22793,-8.61422 16.67969,-13.11523 5.45176,-4.50099 10.79344,-9.13014 16.02148,-13.88281 5.22804,-4.75266 10.34288,-9.62804 15.33789,-14.62305 4.99501,-4.99501 9.87038,-10.10986 14.62305,-15.33789 4.75266,-5.22805 9.3818,-10.56973 13.88281,-16.02149 4.50101,-5.45176 8.8752,-11.01351 13.11524,-16.67968 4.24004,-5.66616 8.3467,-11.43734 12.3164,-17.3086 3.9698,-5.87126 7.80199,-11.84116 11.49219,-17.9082 3.6902,-6.06705 7.23737,-12.23086 10.63867,-18.48437 3.4012,-6.25352 6.65677,-12.59668 9.75977,-19.02735 3.1031,-6.43067 6.05411,-12.94835 8.84961,-19.54687 2.7955,-6.59851 5.43536,-13.27812 7.91406,-20.03516 2.4787,-6.75705 4.79672,-13.59178 6.94922,-20.49805 2.1525,-6.90627 4.13993,-13.88547 5.95703,-20.93164 1.817,-7.04618 3.46334,-14.15918 4.93554,-21.33593 1.4723,-7.17679 2.7705,-14.4168 3.8887,-21.71485 1.1181,-7.29805 2.0558,-14.65443 2.8105,-22.06445 0.7548,-7.41002 1.325,-14.87405 1.7071,-22.38672 0.382,-7.51268 0.5761,-15.07367 0.5761,-22.67969 0,-7.60602 -0.1941,-15.16702 -0.5761,-22.67969 -0.3821,-7.51267 -0.9523,-14.9767 -1.7071,-22.38671 -0.7547,-7.41001 -1.6924,-14.76642 -2.8105,-22.06446 -1.1182,-7.29804 -2.4164,-14.53808 -3.8887,-21.71484 -1.4722,-7.17674 -3.11854,-14.28978 -4.93554,-21.33594 -1.8171,-7.04616 -3.80453,-14.02539 -5.95703,-20.93164 -2.1525,-6.90625 -4.47052,-13.74102 -6.94922,-20.49805 -2.4787,-6.75703 -5.11856,-13.43665 -7.91406,-20.03515 -2.7955,-6.59849 -5.74651,-13.11427 -8.84961,-19.54492 -3.103,-6.43064 -6.35857,-12.77581 -9.75977,-19.0293 -3.4013,-6.25347 -6.94847,-12.4154 -10.63867,-18.48242 -3.6902,-6.06701 -7.52239,-12.03893 -11.49219,-17.91016 -3.9697,-5.87124 -8.07636,-11.64245 -12.3164,-17.30859 -4.24004,-5.66614 -8.61423,-11.22796 -13.11524,-16.67969 -4.50101,-5.45174 -9.13015,-10.79348 -13.88281,-16.02149 -4.75267,-5.22801 -9.62804,-10.34095 -14.62305,-15.33593 -4.99501,-4.99498 -10.10985,-9.87236 -15.33789,-14.625 -5.22804,-4.75263 -10.56972,-9.38184 -16.02148,-13.88281 -5.45176,-4.50098 -11.01353,-8.87328 -16.67969,-13.11329 -5.66617,-4.24001 -11.43733,-8.34667 -17.30859,-12.3164 -5.87126,-3.96972 -11.84117,-7.80206 -17.90821,-11.49219 -6.06704,-3.69014 -12.23086,-7.2394 -18.48437,-10.64062 -6.25352,-3.40123 -12.59668,-6.65481 -19.02735,-9.75782 -6.43067,-3.10301 -12.94836,-6.05413 -19.54687,-8.84961 -6.59852,-2.79548 -13.27811,-5.43542 -20.03516,-7.91406 -6.75705,-2.47864 -13.59177,-4.79674 -20.49804,-6.94922 -6.90626,-2.15249 -13.88546,-4.14002 -20.93164,-5.95703 -7.04617,-1.81702 -14.15918,-3.46331 -21.33594,-4.93555 -7.17678,-1.47224 -14.4168,-2.77052 -21.71485,-3.88867 -7.29805,-1.11815 -14.65443,-2.0558 -22.06445,-2.81055 -7.41002,-0.75474 -14.87404,-1.325 -22.38672,-1.70703 -7.51268,-0.38203 -15.07366,-0.57617 -22.67968,-0.57617 -7.60602,0 -15.16701,0.19414 -22.67969,0.57617 -7.51267,0.38203 -14.9767,0.95229 -22.38672,1.70703 -7.41002,0.75475 -14.7664,1.6924 -22.06445,2.81055 -7.29805,1.11815 -14.53808,2.41643 -21.71485,3.88867 -7.17677,1.47224 -14.28976,3.11853 -21.33594,4.93555 -7.04617,1.81701 -14.02537,3.80454 -20.93164,5.95703 -6.90627,2.15248 -13.74099,4.47058 -20.49804,6.94922 -6.75704,2.47864 -13.43665,5.11858 -20.03516,7.91406 -6.59852,2.79548 -13.1162,5.7466 -19.54687,8.84961 -6.43067,3.10301 -12.77384,6.35659 -19.02735,9.75782 -6.25351,3.40122 -12.41732,6.95048 -18.48437,10.64062 -6.06704,3.69013 -12.03695,7.52247 -17.90821,11.49219 -5.87126,3.96973 -11.64243,8.07639 -17.30859,12.3164 -5.66617,4.24001 -11.22793,8.6123 -16.67969,13.11329 -5.45176,4.50097 -10.79343,9.13018 -16.02148,13.88281 -5.22803,4.75264 -10.34288,9.63002 -15.33789,14.625 -4.995,4.99498 -9.87039,10.10793 -14.62305,15.33593 -4.75267,5.22802 -9.38181,10.56975 -13.88281,16.02149 -4.50102,5.45173 -8.8752,11.01355 -13.11524,16.67969 -4.24004,5.66614 -8.34664,11.43735 -12.3164,17.30859 -3.96975,5.87123 -7.80203,11.84315 -11.49219,17.91016 -3.69017,6.06702 -7.23742,12.22894 -10.63867,18.48242 -3.40126,6.25349 -6.65673,12.59866 -9.75977,19.0293 -3.10304,6.43065 -6.05411,12.94643 -8.84961,19.54492 -2.7955,6.5985 -5.4354,13.27812 -7.9141,20.03515 -2.4786,6.75703 -4.7967,13.5918 -6.9492,20.49805 -2.1525,6.90625 -4.14,13.88548 -5.957,20.93164 -1.8171,7.04616 -3.4633,14.15919 -4.9356,21.33594 -1.4722,7.17676 -2.7705,14.4168 -3.8886,21.71484 -1.1182,7.29804 -2.0558,14.65445 -2.8106,22.06446 z M 570.57618,191.89453 c 6.54717,0 13.05509,0.16571 19.51953,0.49219 6.46445,0.32648 12.88589,0.8139 19.25976,1.45899 6.37386,0.6451 12.69919,1.44649 18.97461,2.40234 6.27542,0.95584 12.50081,2.06548 18.66992,3.32422 6.16911,1.25873 12.28295,2.66693 18.33789,4.2207 6.05494,1.55376 12.05147,3.25282 17.98438,5.09375 5.9329,1.84093 11.80247,3.82508 17.60547,5.94531 5.80301,2.12023 11.53787,4.37788 17.20312,6.76954 5.66525,2.39167 11.25967,4.91702 16.7793,7.57226 5.51962,2.65523 10.96589,5.44061 16.33203,8.35156 5.36613,2.91095 10.65264,5.94667 15.85742,9.10547 5.20478,3.15879 10.32771,6.43911 15.36328,9.83789 5.03557,3.39878 9.98331,6.91599 14.8418,10.54688 4.85849,3.6309 9.62723,7.37532 14.30078,11.23047 4.67355,3.85516 9.25167,7.82103 13.73242,11.89257 4.48075,4.07156 8.86446,8.24922 13.14453,12.5293 4.28008,4.28008 8.45775,8.66378 12.5293,13.14453 4.07155,4.48075 8.03742,9.05887 11.89258,13.73243 3.85515,4.67354 7.59957,9.44229 11.23047,14.30078 3.63089,4.85849 7.14809,9.80622 10.54687,14.84179 3.39878,5.03557 6.6791,10.1585 9.83789,15.36328 3.1588,5.20478 6.19452,10.4913 9.10547,15.85743 2.91095,5.36614 5.69633,10.81241 8.35157,16.33203 2.65524,5.51963 5.18059,11.11404 7.57226,16.77929 2.39166,5.66525 4.6493,11.40012 6.76953,17.20313 2.12023,5.803 4.10436,11.67257 5.94532,17.60547 1.8409,5.93291 3.54005,11.92943 5.09374,17.98437 1.5538,6.05494 2.96201,12.16878 4.22071,18.33789 1.2588,6.16911 2.36842,12.39451 3.32422,18.66993 0.9559,6.27542 1.75724,12.60075 2.40234,18.97461 0.6451,6.37387 1.13248,12.79531 1.45899,19.25976 0.3265,6.46444 0.49218,12.97236 0.49218,19.51953 0,6.54716 -0.16569,13.05508 -0.49218,19.51953 -0.32651,6.46445 -0.81389,12.88591 -1.45899,19.25977 -0.6451,6.37387 -1.44644,12.69919 -2.40234,18.97461 -0.9558,6.27542 -2.06542,12.50081 -3.32422,18.66992 -1.2587,6.16911 -2.66691,12.28295 -4.22071,18.33789 -1.55369,6.05494 -3.25285,12.05148 -5.09374,17.98438 -1.84096,5.93291 -3.82509,11.80245 -5.94532,17.60546 -2.12023,5.80301 -4.37787,11.53788 -6.76953,17.20313 -2.39167,5.66524 -4.91702,11.25968 -7.57226,16.7793 -2.65524,5.51962 -5.44062,10.9659 -8.35157,16.33203 -2.91095,5.36614 -5.94667,10.65263 -9.10547,15.85742 -3.15879,5.20478 -6.43911,10.32771 -9.83789,15.36328 -3.39878,5.03557 -6.91598,9.98331 -10.54687,14.8418 -3.6309,4.85849 -7.37532,9.62723 -11.23047,14.30078 -3.85516,4.67356 -7.82103,9.25167 -11.89258,13.73242 -4.07155,4.48074 -8.24921,8.86445 -12.5293,13.14453 -4.28007,4.28008 -8.66378,8.45775 -13.14453,12.5293 -4.48075,4.07154 -9.05887,8.03743 -13.73242,11.89258 -4.67355,3.85516 -9.44229,7.59957 -14.30078,11.23047 -4.85849,3.6309 -9.80623,7.14809 -14.8418,10.54687 -5.03557,3.39877 -10.1585,6.67909 -15.36328,9.83789 -5.20478,3.15879 -10.49129,6.19452 -15.85742,9.10547 -5.36614,2.91094 -10.81241,5.69632 -16.33203,8.35156 -5.51963,2.65524 -11.11405,5.18061 -16.7793,7.57227 -5.66525,2.39167 -11.40011,4.6493 -17.20312,6.76953 -5.803,2.12022 -11.67257,4.10438 -17.60547,5.94531 -5.93291,1.84093 -11.92944,3.53998 -17.98438,5.09375 -6.05494,1.55376 -12.16878,2.96197 -18.33789,4.2207 -6.16911,1.25874 -12.3945,2.36837 -18.66992,3.32422 -6.27542,0.95585 -12.60075,1.75726 -18.97461,2.40235 -6.37387,0.6451 -12.79531,1.1325 -19.25976,1.45898 -6.46444,0.32648 -12.97236,0.49219 -19.51953,0.49219 -6.54716,0 -13.05509,-0.16571 -19.51954,-0.49219 -6.46444,-0.32648 -12.8859,-0.81388 -19.25976,-1.45898 -6.37387,-0.64509 -12.6992,-1.4465 -18.97461,-2.40235 -6.27542,-0.95585 -12.50081,-2.06547 -18.66992,-3.32422 -6.16911,-1.25873 -12.28295,-2.66694 -18.33789,-4.2207 -6.05494,-1.55377 -12.05148,-3.25282 -17.98438,-5.09375 -5.93291,-1.84093 -11.80246,-3.82509 -17.60547,-5.94531 -5.80301,-2.12023 -11.53787,-4.37786 -17.20312,-6.76953 -5.66524,-2.39166 -11.25968,-4.91703 -16.7793,-7.57227 -5.51962,-2.65524 -10.9659,-5.44062 -16.33203,-8.35156 -5.36614,-2.91095 -10.65263,-5.94668 -15.85742,-9.10547 -5.20478,-3.1588 -10.32771,-6.43912 -15.36328,-9.83789 -5.03557,-3.39878 -9.98331,-6.91597 -14.8418,-10.54687 -4.85849,-3.6309 -9.62723,-7.37531 -14.30078,-11.23047 -4.67356,-3.85515 -9.25167,-7.82104 -13.73242,-11.89258 -4.48074,-4.07155 -8.86445,-8.24922 -13.14454,-12.5293 -4.28007,-4.28008 -8.45774,-8.66379 -12.52929,-13.14453 -4.07154,-4.48075 -8.03743,-9.05886 -11.89258,-13.73242 -3.85516,-4.67355 -7.59957,-9.44229 -11.23047,-14.30078 -3.6309,-4.85849 -7.14809,-9.80623 -10.54687,-14.8418 -3.39877,-5.03557 -6.67909,-10.1585 -9.83789,-15.36328 -3.15879,-5.20479 -6.19452,-10.49128 -9.10547,-15.85742 -2.91094,-5.36613 -5.69633,-10.81241 -8.35157,-16.33203 -2.65524,-5.51962 -5.1806,-11.11406 -7.57226,-16.7793 -2.39167,-5.66525 -4.6493,-11.40012 -6.76953,-17.20313 -2.12022,-5.80301 -4.10439,-11.67255 -5.94531,-17.60546 -1.84093,-5.9329 -3.53999,-11.92944 -5.09376,-17.98438 -1.55376,-6.05494 -2.96196,-12.16878 -4.2207,-18.33789 -1.25874,-6.16911 -2.36837,-12.3945 -3.32422,-18.66992 -0.95585,-6.27542 -1.75725,-12.60074 -2.40234,-18.97461 -0.6451,-6.37386 -1.13251,-12.79532 -1.45898,-19.25977 -0.32648,-6.46445 -0.49219,-12.97237 -0.49219,-19.51953 0,-6.54717 0.1657,-13.05509 0.49219,-19.51953 0.32647,-6.46445 0.81388,-12.88589 1.45898,-19.25976 0.64509,-6.37386 1.44649,-12.69919 2.40234,-18.97461 0.95585,-6.27542 2.06548,-12.50082 3.32422,-18.66993 1.25874,-6.16911 2.66694,-12.28295 4.2207,-18.33789 1.55377,-6.05494 3.25283,-12.05146 5.09376,-17.98437 1.84092,-5.9329 3.82509,-11.80247 5.94531,-17.60547 2.12023,-5.80301 4.37786,-11.53788 6.76953,-17.20313 2.39166,-5.66525 4.91702,-11.25966 7.57226,-16.77929 2.65524,-5.51962 5.44063,-10.96589 8.35157,-16.33203 2.91095,-5.36613 5.94668,-10.65265 9.10547,-15.85743 3.1588,-5.20478 6.43912,-10.32771 9.83789,-15.36328 3.39878,-5.03557 6.91597,-9.9833 10.54687,-14.84179 3.6309,-4.85849 7.37531,-9.62723 11.23047,-14.30078 3.85515,-4.67355 7.82104,-9.25168 11.89258,-13.73243 4.07155,-4.48075 8.24922,-8.86445 12.52929,-13.14453 4.28008,-4.28008 8.6638,-8.45775 13.14454,-12.5293 4.48075,-4.07155 9.05886,-8.03741 13.73242,-11.89257 4.67355,-3.85515 9.44229,-7.59957 14.30078,-11.23047 4.85849,-3.63089 9.80623,-7.1481 14.8418,-10.54688 5.03557,-3.39878 10.1585,-6.6791 15.36328,-9.83789 5.20479,-3.1588 10.49128,-6.19452 15.85742,-9.10547 5.36613,-2.91095 10.81241,-5.69633 16.33203,-8.35156 5.51962,-2.65524 11.11406,-5.18059 16.7793,-7.57226 5.66525,-2.39166 11.40011,-4.64931 17.20312,-6.76954 5.80301,-2.12023 11.67256,-4.10438 17.60547,-5.94531 5.9329,-1.84093 11.92944,-3.53999 17.98438,-5.09375 6.05494,-1.55377 12.16878,-2.96197 18.33789,-4.2207 6.16911,-1.25874 12.3945,-2.36838 18.66992,-3.32422 6.27541,-0.95585 12.60074,-1.75724 18.97461,-2.40234 6.37386,-0.64509 12.79532,-1.13251 19.25976,-1.45899 6.46445,-0.32648 12.97237,-0.49219 19.51954,-0.49219 z"
     id="path1019"
     inkscape:connector-curvature="0" />
  <path
     style="color:#000000;font-style:normal;font-variant:normal;font-weight:normal;font-stretch:normal;font-size:medium;line-height:normal;font-family:sans-serif;font-variant-ligatures:normal;font-variant-position:normal;font-variant-caps:normal;font-variant-numeric:normal;font-variant-alternates:normal;font-feature-settings:normal;text-indent:0;text-align:start;text-decoration:none;text-decoration-line:none;text-decoration-style:solid;text-decoration-color:#000000;letter-spacing:normal;word-spacing:normal;text-transform:none;writing-mode:lr-tb;direction:ltr;text-orientation:mixed;dominant-baseline:auto;baseline-shift:baseline;text-anchor:start;white-space:normal;shape-padding:0;clip-rule:nonzero;display:inline;overflow:visible;visibility:visible;opacity:1;isolation:auto;mix-blend-mode:normal;color-interpolation:sRGB;color-interpolation-filters:linearRGB;solid-color:#000000;solid-opacity:1;vector-effect:none;fill:#570662;fill-opacity:1;fill-rule:nonzero;stroke:none;stroke-width:125.40000153;stroke-linecap:butt;stroke-linejoin:miter;stroke-miterlimit:4;stroke-dasharray:none;stroke-dashoffset:0;stroke-opacity:1;color-rendering:auto;image-rendering:auto;shape-rendering:auto;text-rendering:auto;enable-background:accumulate"
     d="M 570.57618,0 C 256.95514,0 0,256.95252 0,570.57422 c 0,313.62166 256.95456,570.57608 570.57618,570.57608 313.62164,0 570.57612,-256.95446 570.57612,-570.57608 C 1141.1523,256.95253 884.19723,0 570.57618,0 Z m 0,62.699219 c 279.45467,0 507.87692,228.420001 507.87692,507.875001 0,279.45499 -228.42193,507.87688 -507.87692,507.87688 -268.92883,0 -490.59078,-211.53833 -506.90818,-476.52532 h 66.6406 c 0.3235,4.59044 0.7103,9.16391 1.1738,13.71485 -0.7547,-7.41002 -1.325,-14.87405 -1.707,-22.38672 -0.3821,-7.51268 -0.5762,-15.07367 -0.5762,-22.67969 0,-7.60602 0.1941,-15.16702 0.5762,-22.67969 0.382,-7.51267 0.9523,-14.9767 1.707,-22.38671 -0.4635,4.55122 -0.8503,9.12605 -1.1738,13.71679 H 63.668 C 79.9855,274.23778 301.64766,62.699219 570.57618,62.699219 Z"
     id="path992"
     inkscape:connector-curvature="0" />
</svg>
